<?xml version="1.0" encoding="utf-8"?>
<!-- Generator: Adobe Illustrator 25.0.1, SVG Export Plug-In . SVG Version: 6.00 Build 0)  -->
<svg version="1.1" id="Layer_2" xmlns="http://www.w3.org/2000/svg" xmlns:xlink="http://www.w3.org/1999/xlink" x="0px" y="0px"
	 viewBox="0 0 792 612" style="enable-background:new 0 0 792 612;" xml:space="preserve">
<style type="text/css">
	.st0{fill:#F15A29;}
	.st1{fill:#FFFFFF;}
	.st2{fill:#39B54A;}
	.st3{fill:none;}
</style>
<path class="st0" d="M299.8,265.04c-15.6-10.17-31.2-20.34-46.8-30.51c4.09,10.34,8.18,20.67,12.27,31.01l-9.86,0.15
	c-7.17-17.92-14.34-35.83-21.5-53.75c27.56,17.62,55.13,35.24,82.69,52.85L299.8,265.04z"/>
<path class="st0" d="M417.71,263.31l-10.94,0.16c-5.85-10.19-11.69-20.39-17.53-30.59c-6.11,10.37-12.23,20.75-18.34,31.12
	l-9.99,0.15c9.52-16.62,19.04-33.24,28.56-49.86C398.89,230.63,408.3,246.97,417.71,263.31z"/>
<path class="st0" d="M544.77,213.12c-6.54,16.21-13.08,32.41-19.63,48.62l-11.78,0.18c3.73-9.37,7.45-18.73,11.17-28.1
	c-14.47,9.52-28.94,19.04-43.41,28.57h-0.01l-14.68,0.21C492.54,246.11,518.66,229.62,544.77,213.12z"/>
<path class="st1" d="M525.14,261.74c-6.88,17.07-13.77,34.14-20.66,51.21l-11.4,0.02c6.76-17.02,13.52-34.03,20.28-51.05
	L525.14,261.74z"/>
<path class="st1" d="M284.16,313.3l-9.71,0.02c-6.35-15.88-12.7-31.75-19.04-47.63l9.86-0.15
	C271.56,281.46,277.86,297.38,284.16,313.3z"/>
<path class="st2" d="M493.08,312.97c-6.38,16.05-12.76,32.1-19.14,48.15c-9.32-16.03-18.63-32.06-27.95-48.08l-10.44,0.02
	c8.48,14.69,16.97,29.37,25.45,44.06c-21.33-13.73-42.67-27.45-64-41.18c1.57-0.94,3.15-1.88,4.72-2.83l-27.62,0.05
	c2.06,1.39,4.13,2.79,6.19,4.19c-20.78,13.1-41.56,26.2-62.35,39.3c8.13-14.48,16.27-28.96,24.4-43.44l-10.33,0.02
	c-9.56,16.2-19.11,32.4-28.66,48.59c-6.4-16.17-12.79-32.35-19.19-48.52l-9.71,0.02c7.75,19.38,15.51,38.77,23.26,58.15
	c61.02,0.08,122.04,0.16,183.05,0.24c7.91-19.59,15.81-39.18,23.72-58.76L493.08,312.97z M326.88,361.59
	c20.63-13.18,41.26-26.35,61.88-39.53c20.79,13.49,41.57,26.98,62.36,40.47C409.71,362.22,368.29,361.9,326.88,361.59z"/>
<path class="st3" d="M388.76,322.06c20.79,13.49,41.57,26.98,62.36,40.47c-41.41-0.31-82.83-0.63-124.24-0.94
	C347.51,348.41,368.14,335.24,388.76,322.06z"/>
<path class="st3" d="M451.12,362.53c-41.41-0.31-82.83-0.63-124.24-0.94c20.63-13.18,41.26-26.35,61.88-39.53
	C409.55,335.55,430.33,349.04,451.12,362.53z"/>
<path class="st1" d="M434.41,293.12c3.86,6.64,7.72,13.28,11.58,19.92l-10.44,0.02c-2.89-5-5.78-10-8.67-15
	c-8.38,5.02-16.77,10.03-25.15,15.05h-0.01l-27.62,0.05c-7.66-5.19-15.32-10.38-22.98-15.57c-2.93,5.2-5.85,10.41-8.77,15.62h-0.01
	l-10.33,0.02c3.86-6.55,7.72-13.09,11.58-19.64c-14.6-9.52-29.19-19.03-43.79-28.55l16.8-0.25c10.72,6.86,21.44,13.71,32.16,20.56
	c4.05-7.06,8.1-14.13,12.15-21.2l9.99-0.15c-5.03,8.53-10.05,17.06-15.08,25.59c10.98,7.21,21.96,14.43,32.94,21.65
	c11.22-6.83,22.44-13.65,33.65-20.48c-5.21-9.1-10.43-18.19-15.64-27.29l10.94-0.16c4.23,7.35,8.47,14.7,12.7,22.04
	c12.01-7.58,24.01-15.17,36.02-22.75l14.68-0.21C465.54,272.63,449.98,282.88,434.41,293.12z"/>
</svg>
